<?xml version="1.0" encoding="iso-8859-1"?>
<!-- Generator: Adobe Illustrator 19.0.0, SVG Export Plug-In . SVG Version: 6.00 Build 0)  -->
<svg version="1.1" id="Layer_1" xmlns="http://www.w3.org/2000/svg" xmlns:xlink="http://www.w3.org/1999/xlink" x="0px" y="0px"
	 viewBox="0 0 403.438 403.438" style="enable-background:new 0 0 403.438 403.438;" xml:space="preserve">
	<g>
		<path d="M375.208,350.702l-12.288-77.824c-6.464-42.822-23.135-82.132-48.238-115.175l15.982,0.999
			c2.56,0,4.608-2.048,5.12-4.608c0.512-3.072-1.536-5.632-4.608-5.632l-24.064-1.536c-0.397-0.066-0.785-0.088-1.16-0.072
			c-2.219-2.6-4.495-5.154-6.825-7.664c4.657-2.28,8.881-5.064,13.105-8.137c2.048-1.536,2.56-5.12,1.024-7.168
			c-1.536-2.048-5.12-2.56-7.168-1.024c-4.405,3.426-9.283,6.373-14.623,8.417l-3.297-3.297c-3.363-3.363-6.952-6.498-10.757-9.274
			c7.528-5.557,15.849-10.02,24.581-13.254c0.586-0.234,1.114-0.58,1.575-0.998c5.326-2.714,8.665-10.784,8.665-21.53
			c0-11.264-5.12-22.528-13.312-22.528c-0.995,0-1.868,0.235-2.614,0.63l-11.722,2.442c-8.744,1.785-17.295,4.395-25.58,7.71
			c0.228-12.464-3.523-23.5-11.284-31.262c-6.97-6.97-16.439-10.561-27.072-11.033c1.041-2.554,2.211-5.044,3.52-7.399
			l6.656-11.264c1.024-2.56,0.512-5.632-2.048-7.168c-2.56-1.536-5.632-0.512-7.168,2.048l-6.656,11.264
			c-2.391,4.383-4.16,8.767-5.793,13.15c-1.503,0.224-3.02,0.515-4.544,0.846c0.177-6.202,1.231-12.403,3.169-18.605
			c0.512-3.072-1.024-5.632-3.584-6.656c-3.072-0.512-5.632,1.024-6.656,3.584c-2.72,8.16-3.829,16.323-3.693,24.838
			c-1.518,0.565-3.038,1.196-4.556,1.86c-0.581-11.419-3.555-22.659-8.646-32.842c-1.024-2.56-4.096-3.072-6.656-2.048
			c-2.56,1.024-3.072,4.096-2.048,6.656c5.373,10.257,7.943,21.448,7.724,33.125c-7.672,4.453-15.158,10.149-22.06,17.051
			c-9.154,9.154-16.286,19.469-21.117,29.951c0.521-4.997,1.413-10.407,2.685-16.639l2.048-10.24
			c0.111-0.664,0.096-1.302-0.012-1.903c0.001-0.05,0.012-0.095,0.012-0.145c0-9.728-16.896-14.336-33.28-14.336
			c-16.384,0-33.28,4.096-33.28,14.336c0,0.012,0.003,0.022,0.003,0.033c-0.129,0.671-0.134,1.36-0.003,2.015l1.536,4.608
			c6.144,30.72,6.144,46.592,1.024,76.8l-5.632,32.768c-0.052,0.315-0.072,0.622-0.073,0.925c-0.724,1.275-1.417,2.567-2.069,3.88
			c-8.096-1.564-15.749-4.071-22.947-8.389l-11.264-6.656c-2.56-1.024-5.632-0.512-7.168,2.048
			c-1.024,2.56-0.512,5.632,2.048,7.168l11.264,6.656c7.459,3.949,15.67,7.135,23.988,8.935c-0.888,2.535-1.665,5.11-2.336,7.718
			c-3.09,0.437-6.396,0.931-9.365,1.779L32.68,204.27c-2.56,0.512-4.096,3.584-3.584,6.144c1.024,2.048,3.072,3.584,5.12,3.584
			c0.512,0,1.024,0,0.512,0.512l20.992-5.632c1.797-0.513,3.466-0.898,5.135-1.219c-4.407,29.794,3.3,61.267,14.833,76.995
			c2.243,3.048,4.336,5.851,6.31,8.448c-0.104,0.403-0.166,0.829-0.166,1.28c-1.024,16.896-3.584,33.792-7.168,48.64l-3.584,16.896
			c-0.089,0.447-0.096,0.909-0.041,1.37c-1.149,9.036,11.991,15.558,25.641,18.086c3.584,0.512,8.704,1.024,13.312,1.024
			c9.179,0,18.354-2.035,19.944-8.628c0.239-0.484,0.436-1.01,0.536-1.612l3.246-25.966
			c32.476,24.306,70.307,40.177,111.442,46.446l77.824,12.288c2.048,0.512,4.608,0.512,7.168,0.512
			c11.776,0,23.552-4.608,32.256-12.8C372.648,379.886,377.768,365.55,375.208,350.702z M281,135.15l4.608,4.608
			c6.726,6.726,13.019,13.831,18.859,21.281c0.012,0.248,0.037,0.494,0.085,0.735c1.536,6.656-0.512,13.312-4.608,17.408
			c-3.584,3.584-9.216,5.12-15.872,4.608c-8.704-1.024-16.896-5.632-22.016-13.312c-3.882-5.607-8.864-10.115-14.621-13.848
			c4.177-10.344,10.121-19.541,17.693-27.112c1.281-1.345,2.602-2.65,3.961-3.914C273.433,128.288,277.221,131.372,281,135.15z
			 M297.638,71.418l1.203-0.251c1.174,1.642,3.151,5.909,3.151,11.759c0,7.057-1.983,11.13-3.022,12.232
			c-2.453-0.563-5.17-5.49-5.17-12.232C293.8,77.399,295.628,73.101,297.638,71.418z M165.8,64.494
			c13.921-13.921,30.26-22.528,44.828-24.945c0.238,0.135,0.48,0.265,0.74,0.369c0.512,0,1.024,0,1.536,0
			c0.99,0,1.978-0.365,2.852-0.967c10.135-0.665,19.096,1.924,25.308,8.135c6.446,6.446,9.516,16.738,7.844,28.542
			c-9.439,4.57-18.446,10.092-26.894,16.411c-1.048-1.556-2.42-2.873-3.989-3.994c-7.168-5.12-17.92-0.512-25.088,9.728
			c-3.389,5.325-5.857,13.398-0.057,23.351c-2.686,3.506-5.301,7.083-7.623,10.953l-2.305,3.841
			c-10.507-8.055-25.192-10.903-41.226-8.546C136.72,109.098,146.463,83.831,165.8,64.494z M107.944,53.23
			c14.528,0.484,20.805,3.714,22.743,5.363c-1.549,2.332-9.531,6.413-23.255,6.413c-11.755,0-19.295-2.996-22.194-5.322
			l-0.235-0.939C86.676,56.664,92.861,52.728,107.944,53.23z M83.88,175.086c0.279-0.349,0.506-0.698,0.692-1.046
			c0.623-0.717,1.245-1.404,1.868-2.026c10.752-11.776,23.04-20.48,36.352-25.088c1.536-0.512,2.048-1.536,1.536-3.072
			c-0.512-1.536-1.536-2.048-3.072-1.536c-13.716,5.08-26.925,13.693-38.133,25.829c-0.088-0.076-0.174-0.154-0.267-0.229
			c-0.063-0.051-0.128-0.092-0.192-0.14l4.288-24.948c3.916-25.456,4.076-50.447-0.392-76.757
			c5.569,2.332,13.369,3.541,20.872,3.541c8.082,0,16.509-1.402,22.119-4.1l-0.615,3.076c-5.12,27.136-4.096,40.448,3.072,66.56
			c0.512,2.048,2.56,3.584,4.608,3.584c0.512,0,1.024,0,1.536,0c0.678-0.136,1.282-0.455,1.797-0.892
			c16.628-3.474,30.779-0.324,39.675,8.572c8.192,8.704,12.8,22.528,11.264,37.376c-1.536,20.48-12.8,39.424-30.208,51.712
			c-28.16,19.968-37.376,46.08-43.008,61.952c-2.048,5.12-4.608,11.776-5.632,12.8c-3.072,0-12.8-10.752-28.16-31.744
			C69.032,258.542,61.352,206.83,83.88,175.086z M120.314,368.482c-0.025,0.048-0.057,0.092-0.082,0.14
			c-2.048,1.024-10.752,2.56-21.504,0.512c-10.022-1.503-16.107-5.453-17.322-7.06l3.498-16.492
			c2.933-12.151,5.179-26.359,6.46-40.66c3.205,3.816,5.982,6.812,8.458,9.119c0.245,0.471,0.548,0.926,0.954,1.332l4.608,4.096
			c6.043,6.124,12.348,11.893,18.893,17.304L120.314,368.482z M355.24,382.958c-8.192,8.192-19.456,12.288-30.72,10.24
			l-77.824-12.288c-48.89-7.822-93.571-29.66-129.155-63.264c4.176-3.039,6.615-9.438,9.347-17.632
			c0.812-2.437,1.703-5.081,2.727-7.876c11.61,14.673,25.622,26.861,41.305,36.548c0.512,0.512,1.024,0.512,1.536,0.512
			c1.024,0,2.048-0.512,2.048-1.024c0.512-1.024,0-3.072-1.024-3.584c-16.044-10.21-30.236-22.734-41.71-37.999
			c4.844-11.77,12.395-25.357,26.219-37.317c6.586,10.718,14.067,20.587,23.171,29.236c0.512,0.512,1.536,0.512,2.048,0.512
			c0.512,0,1.024,0,2.048-0.512c1.024-1.024,1.024-2.56,0-3.584c-8.824-8.824-16.787-18.499-23.162-29.007
			c1.197-0.924,2.423-1.839,3.706-2.737c10.04-6.951,18.266-15.845,24.227-25.964c6.994,9.92,15.128,19.029,24.413,26.988
			c0.512,0.512,1.024,0.512,1.536,0.512c0.512,0,1.536,0,1.536-1.024c1.024-1.024,1.024-2.56,0-3.584
			c-9.408-8.468-17.509-17.811-24.721-28.007c4.281-8.65,6.977-18.049,7.825-27.801c1.817-15.895-2.017-30.573-10.408-41.192
			l3.24-5.4c3.072-4.608,6.144-9.216,9.728-13.312c2.048-2.048,1.536-5.632-0.512-7.168c-0.427-0.427-0.924-0.737-1.452-0.951
			c-2.7-4.538-2.86-8.66-0.084-12.361c4.096-6.144,9.216-8.192,11.264-7.168c1.024,1.024,1.536,2.56,1.536,3.584
			c0.067,0.334,0.163,0.659,0.281,0.972c0.126,0.957,0.525,1.882,1.255,2.612c1.024,1.536,2.56,2.048,4.096,2.048
			s2.56-0.512,3.072-1.024c18.432-15.36,40.448-26.112,64-31.232l4.688-0.977c-1.051,2.853-1.615,6.358-1.615,10.193
			c0,6.22,1.471,11.59,4.133,14.663c-13.198,5.7-25.775,14.146-35.877,24.249c-12.8,12.8-21.504,29.184-25.6,48.128l-2.048,9.216
			c-0.512,2.56,1.536,5.632,4.096,6.144c0.512,0,0.512,0,1.024,0c2.56,0,4.608-1.536,5.12-3.584l2.048-9.216
			c0.406-1.912,0.871-3.793,1.38-5.65c3.757,2.751,6.829,6.114,9.372,9.746c5.146,6.984,12.144,12.37,20.036,15.24l14.268,31.864
			c3.584,8.192,6.656,16.384,8.704,25.088c0.512,1.024,1.536,2.048,2.56,2.048c0,0,0.512,0,0.512-0.512
			c1.536-0.512,2.56-1.536,2.048-3.072c-2.56-8.704-5.632-17.92-9.216-26.112l-12.34-27.559c1.033,0.179,2.072,0.331,3.124,0.423
			c1.536,0,2.56,0,3.584,0c8.704,0,15.872-3.072,20.992-7.68c3.223-3.223,5.476-7.289,6.72-11.727
			c19.794,29.319,33.103,63.167,38.848,99.792l12.288,77.824C367.016,363.502,363.432,374.766,355.24,382.958z"/>
		<path d="M169.896,304.11c-1.024-1.024-2.56-1.024-3.584,0c-1.024,1.024-1.024,2.56,0,3.584c3.072,2.56,6.656,5.12,9.728,7.68
			c0.512,0.512,1.024,0.512,1.536,0.512c1.024,0,1.536-0.512,2.048-0.512c1.024-1.024,0.512-2.56-0.512-3.584
			C176.04,309.23,172.968,306.67,169.896,304.11z"/>
		<path d="M191.912,333.806c-2.56-1.536-5.12-2.56-7.168-3.584c-1.536-0.512-3.072,0-3.584,1.024c-0.512,1.536,0,3.072,1.024,3.584
			c2.56,1.536,4.608,2.56,7.168,3.584c0.512,0,0.512,0,1.024,0c1.024,0,2.048-0.512,3.072-1.024
			C193.96,335.854,193.448,334.318,191.912,333.806z"/>
		<path d="M137.128,318.958c-1.024-1.024-2.56-1.024-3.584,0c-1.024,1.024-1.024,2.56,0,3.584c3.584,3.072,6.656,6.144,10.24,8.704
			c0.512,0.512,1.024,0.512,1.536,0.512c1.024,0,1.536-0.512,2.048-0.512c0.512-1.024,0.512-2.56-0.512-3.584
			C143.272,324.59,140.2,322.03,137.128,318.958z"/>
		<path d="M211.88,295.918c-3.584-2.048-7.168-4.608-10.752-7.168c-1.024-1.024-2.56-0.512-3.584,0.512s-0.512,2.56,0.512,3.584
			c3.584,2.56,7.168,5.12,10.752,7.168c0.512,0.512,1.024,0.512,1.536,0.512c1.024,0,2.048-0.512,2.56-1.024
			C213.416,298.478,212.904,296.43,211.88,295.918z"/>
		<path d="M227.24,304.622c-2.048-1.024-4.608-2.56-6.656-3.584c-1.536-0.512-3.072-0.512-3.584,1.024
			c-0.512,1.536,0,3.072,1.024,3.584c2.56,1.536,4.608,2.56,7.168,3.584c0.512,0,0.512,0,1.024,0c1.024,0,1.536-0.512,2.048-1.024
			C229.288,306.671,228.264,305.134,227.24,304.622z"/>
		<path d="M295.336,345.07c-1.536,0-3.072,0.512-3.072,2.048l-0.512,3.584c0,1.536,0.512,2.56,2.56,3.072
			c1.024,0,2.048-1.024,2.56-2.048l0.512-3.584C297.896,346.606,296.872,345.582,295.336,345.07z"/>
		<path d="M319.912,322.542c-1.536,0-3.072,0.512-3.072,2.048l-2.56,13.824c0,1.536,0.512,2.56,2.56,3.072
			c1.024,0,2.048-1.024,2.56-2.048l2.56-13.824C322.472,324.078,321.448,322.542,319.912,322.542z"/>
		<path d="M301.48,311.79c-1.536,0-3.072,0.512-3.072,2.048l-3.584,19.456c0,1.024,1.024,2.56,2.56,3.072
			c1.536,0,2.56-1.024,2.56-2.56l3.584-18.944C304.04,313.326,303.016,311.79,301.48,311.79z"/>
		<path d="M287.656,269.294c-1.536,0-2.56,1.024-2.56,2.56c1.024,12.288,0,25.088-2.048,37.376c0,1.536,0.512,2.56,2.56,3.072
			c1.536,0,2.56-0.512,2.56-1.536c2.048-12.8,3.072-26.112,2.048-38.912C290.216,270.318,289.192,269.294,287.656,269.294z"/>
		<path d="M301.48,261.102c-1.536,0.512-2.048,1.536-2.048,3.072c0.512,3.584,0.512,7.68,1.024,11.776
			c0,1.536,1.024,2.56,2.56,2.56c2.048,0,3.072-1.024,3.072-3.072c-0.512-4.096-1.024-8.192-1.536-12.288
			C304.04,261.614,303.016,261.102,301.48,261.102z"/>
		<path d="M329.64,260.59c-0.512-1.536-1.536-2.048-3.072-2.048c-1.536,0.512-2.048,1.536-2.048,3.072
			c0.512,2.048,1.024,3.584,1.024,5.12c0,1.024,1.536,2.048,2.56,2.048c2.048,0,3.072-1.536,2.56-3.072
			C330.152,264.174,330.152,262.126,329.64,260.59z"/>
		<path d="M317.352,248.814c-1.024-3.584-1.536-7.168-2.56-10.752c-0.512-1.536-1.536-2.56-3.072-2.048
			c-1.536,0.512-2.56,1.536-2.048,3.072c0.512,3.584,1.536,7.168,2.048,10.752c0.512,1.024,1.536,2.048,2.56,2.048
			C315.816,251.886,316.84,250.35,317.352,248.814z"/>
	</g>
</svg>
